<?xml version="1.0" standalone="no"?>
<!DOCTYPE svg PUBLIC "-//W3C//DTD SVG 20010904//EN"
 "http://www.w3.org/TR/2001/REC-SVG-20010904/DTD/svg10.dtd">
<svg version="1.0" xmlns="http://www.w3.org/2000/svg"
 width="260.000000pt" height="260.000000pt" viewBox="0 0 260.000000 260.000000"
 preserveAspectRatio="xMidYMid meet">
<metadata>
Created by potrace 1.14, written by Peter Selinger 2001-2017
</metadata>
<g transform="translate(0.000000,260.000000) scale(0.100000,-0.100000)"
fill="#000000" stroke="none">
<path d="M186 2584 c-34 -11 -64 -31 -102 -68 -90 -90 -84 -8 -84 -1216 0
-1208 -6 -1126 84 -1216 90 -90 8 -84 1216 -84 1208 0 1126 -6 1216 84 90 90
84 8 84 1216 0 1208 6 1126 -84 1216 -90 90 -8 84 -1220 83 -913 0 -1068 -2
-1110 -15z m2239 -53 c51 -23 101 -79 114 -128 7 -26 11 -393 11 -1113 0
-1018 -1 -1077 -19 -1115 -23 -51 -79 -101 -128 -114 -36 -10 -2193 -17 -2193
-7 0 2 15 19 33 38 38 37 77 143 99 268 19 111 19 1792 -1 1900 -20 112 -58
225 -87 260 l-26 30 1079 0 c1021 0 1080 -1 1118 -19z m-2199 -228 c17 -80 19
-162 22 -913 2 -540 -1 -860 -8 -925 -13 -123 -30 -215 -40 -215 -4 0 -16 39
-26 88 -17 79 -19 161 -22 912 -2 540 1 860 8 925 13 123 30 215 40 215 4 0
16 -39 26 -87z"/>
<path d="M847 1886 c-212 -76 -331 -245 -283 -408 18 -63 68 -117 136 -147 25
-10 99 -31 165 -46 154 -34 150 -32 185 -62 24 -20 30 -33 30 -65 0 -55 -45
-97 -134 -126 -85 -28 -168 -28 -240 -1 -75 28 -95 46 -107 99 -17 77 -55 98
-119 65 -40 -21 -54 -52 -78 -170 -24 -113 -18 -142 31 -159 23 -9 36 -6 66
11 l38 22 60 -24 c165 -67 354 -47 510 54 94 61 143 145 151 257 5 77 -8 115
-57 167 -41 45 -90 65 -247 102 -169 41 -197 53 -214 94 -24 60 10 115 98 158
70 34 166 38 231 9 50 -23 67 -47 76 -113 4 -29 12 -56 18 -61 43 -35 115 -13
141 43 9 18 26 81 38 138 21 100 21 106 5 131 -14 20 -26 26 -55 26 -21 0 -47
-6 -57 -14 -16 -12 -25 -10 -69 12 -42 21 -68 26 -151 29 -86 3 -110 0 -168
-21z"/>
<path d="M1603 1883 c-30 -6 -83 -68 -83 -97 0 -38 30 -66 80 -74 l46 -7 -71
-335 -71 -335 -53 -5 c-44 -5 -58 -12 -82 -38 -38 -42 -38 -83 -2 -112 26 -20
36 -21 221 -18 l194 3 29 33 c34 38 38 83 9 112 -16 16 -33 20 -80 20 -41 0
-60 4 -60 13 1 18 36 173 43 184 3 5 30 26 61 47 40 27 61 36 76 31 36 -11 90
-66 116 -117 26 -50 94 -275 94 -309 0 -18 8 -19 105 -19 113 0 150 11 179 52
20 28 20 68 2 93 -10 14 -31 21 -72 25 l-57 5 -21 80 c-31 116 -77 207 -138
271 -45 48 -50 57 -37 67 248 186 349 255 383 261 81 15 126 106 75 152 -19
17 -37 19 -158 19 -75 0 -149 -3 -164 -8 -46 -13 -89 -112 -57 -132 6 -3 10
-12 10 -20 0 -12 -341 -268 -348 -261 -1 2 9 56 23 120 14 65 25 119 25 122 0
2 23 4 50 4 61 0 111 19 134 51 23 33 20 82 -5 105 -19 17 -39 19 -198 21 -97
0 -186 -1 -198 -4z"/>
</g>
</svg>
